<svg width="48" height="48" viewBox="0 0 48 48" fill="none" xmlns="http://www.w3.org/2000/svg">
<path d="M24 4C22.344 4 21 5.344 21 7V8.39062C15.8264 9.72419 12 14.4096 12 20V30H36V20C36 14.4096 32.1736 9.72419 27 8.39062V7C27 5.344 25.656 4 24 4ZM8 34V38H20.5391C20.1869 38.6078 20.001 39.2976 20 40C20 41.0609 20.4214 42.0783 21.1716 42.8284C21.9217 43.5786 22.9391 44 24 44C25.0609 44 26.0783 43.5786 26.8284 42.8284C27.5786 42.0783 28 41.0609 28 40C27.9979 39.2972 27.8106 38.6074 27.457 38H40V34H8Z" fill="#2D4562"/>
</svg>
