<svg width="88" height="88" viewBox="0 0 88 88" fill="none" xmlns="http://www.w3.org/2000/svg">
<g clip-path="url(#clip0_124_8)">
<path d="M44 7.33337C23.76 7.33337 7.33337 23.76 7.33337 44C7.33337 64.24 23.76 80.6667 44 80.6667C64.24 80.6667 80.6667 64.24 80.6667 44C80.6667 23.76 64.24 7.33337 44 7.33337ZM44 18.3334C50.0867 18.3334 55 23.2467 55 29.3334C55 35.42 50.0867 40.3334 44 40.3334C37.9134 40.3334 33 35.42 33 29.3334C33 23.2467 37.9134 18.3334 44 18.3334ZM44 70.4C34.8334 70.4 26.73 65.7067 22 58.5934C22.11 51.2967 36.6667 47.3 44 47.3C51.2967 47.3 65.89 51.2967 66 58.5934C61.27 65.7067 53.1667 70.4 44 70.4Z" fill="white"/>
</g>
<defs>
<clipPath id="clip0_124_8">
<rect width="88" height="88" fill="white"/>
</clipPath>
</defs>
</svg>
