<svg width="35" height="35" viewBox="0 0 35 35" fill="none" xmlns="http://www.w3.org/2000/svg">
<g clip-path="url(#clip0_349_16)">
<path d="M30.6249 14.7583H20.7374L24.7333 10.6458C20.752 6.70833 14.3062 6.5625 10.3249 10.5C6.34368 14.4521 6.34368 20.825 10.3249 24.7771C14.3062 28.7292 20.752 28.7292 24.7333 24.7771C26.7166 22.8229 27.7083 20.5333 27.7083 17.6458H30.6249C30.6249 20.5333 29.3416 24.2812 26.7749 26.8187C21.6562 31.8937 13.3437 31.8937 8.22493 26.8187C3.12077 21.7583 3.07702 13.5333 8.19577 8.47292C13.3145 3.4125 21.5249 3.4125 26.6437 8.47292L30.6249 4.375V14.7583ZM18.2291 11.6667V17.8646L23.3333 20.8979L22.2833 22.6625L16.0416 18.9583V11.6667H18.2291Z" fill="white"/>
</g>
<defs>
<clipPath id="clip0_349_16">
<rect width="35" height="35" fill="white"/>
</clipPath>
</defs>
</svg>
