<svg width="35" height="35" viewBox="0 0 35 35" fill="none" xmlns="http://www.w3.org/2000/svg">
<g clip-path="url(#clip0_124_43)">
<path d="M17.5001 2.91663C9.45008 2.91663 2.91675 9.44996 2.91675 17.5C2.91675 25.55 9.45008 32.0833 17.5001 32.0833C25.5501 32.0833 32.0834 25.55 32.0834 17.5C32.0834 9.44996 25.5501 2.91663 17.5001 2.91663ZM18.9584 27.7083H16.0417V24.7916H18.9584V27.7083ZM21.9772 16.4062L20.6647 17.7479C19.6147 18.8125 18.9584 19.6875 18.9584 21.875H16.0417V21.1458C16.0417 19.5416 16.698 18.0833 17.748 17.0187L19.5563 15.1812C20.0959 14.6562 20.4167 13.927 20.4167 13.125C20.4167 11.5208 19.1042 10.2083 17.5001 10.2083C15.8959 10.2083 14.5834 11.5208 14.5834 13.125H11.6667C11.6667 9.90204 14.2772 7.29163 17.5001 7.29163C20.723 7.29163 23.3334 9.90204 23.3334 13.125C23.3334 14.4083 22.8084 15.575 21.9772 16.4062Z" fill="#2D4562"/>
</g>
<defs>
<clipPath id="clip0_124_43">
<rect width="35" height="35" fill="white"/>
</clipPath>
</defs>
</svg>
