<svg width="31" height="24" viewBox="0 0 31 24" fill="none" xmlns="http://www.w3.org/2000/svg">
<path d="M21.053 16.8C19.921 16.347 19.469 15.102 19.469 15.102C19.469 15.102 18.959 15.384 18.959 14.592C18.959 13.8 19.469 15.102 19.979 12.044C19.979 12.044 21.392 11.647 21.109 8.364H20.769C20.769 8.364 21.619 4.854 20.769 3.664C19.919 2.476 19.581 1.684 17.712 1.117C15.843 0.55 16.524 0.663 15.165 0.721C13.805 0.779 12.673 1.514 12.673 1.911C12.673 1.911 11.823 1.967 11.485 2.307C11.145 2.647 10.579 4.231 10.579 4.627C10.579 5.023 10.862 7.687 11.145 8.252L10.808 8.366C10.524 11.649 11.938 12.046 11.938 12.046C12.448 15.104 12.958 13.802 12.958 14.594C12.958 15.386 12.448 15.104 12.448 15.104C12.448 15.104 11.996 16.349 10.864 16.802C9.732 17.254 3.448 19.688 2.937 20.198C2.425 20.708 2.483 23.086 2.483 23.086H29.43C29.43 23.086 29.49 20.709 28.978 20.198C28.468 19.688 22.183 17.254 21.051 16.802L21.053 16.8ZM8.583 16.628C8.483 16.448 8.435 16.318 8.435 16.318C8.435 16.318 8.003 16.558 8.003 15.886C8.003 15.214 8.43499 16.318 8.86699 13.726C8.86699 13.726 10.067 13.391 9.82699 10.608H9.53699C9.53699 10.608 9.68099 10.018 9.77499 9.274C9.77078 8.94159 9.78313 8.60918 9.812 8.278L9.85 7.852C9.83 7.36 9.743 6.912 9.538 6.626C8.818 5.619 8.53 4.946 6.948 4.466C5.364 3.986 5.938 4.082 4.788 4.131C3.636 4.181 2.676 4.803 2.676 5.141C2.676 5.141 1.956 5.188 1.668 5.476C1.398 5.746 0.962995 6.938 0.910995 7.361V7.641C0.958995 8.295 1.171 10.091 1.381 10.514L1.095 10.61C0.854996 13.392 2.055 13.728 2.055 13.728C2.485 16.318 2.918 15.216 2.918 15.888C2.918 16.56 2.486 16.318 2.486 16.318C2.486 16.318 2.103 17.376 1.143 17.758L0.910995 17.85V23.084H1.486C1.456 21.806 1.563 20.157 2.232 19.49C2.589 19.135 3.756 18.55 8.585 16.628H8.583ZM30.913 7.572C30.873 7.194 30.786 6.857 30.621 6.626C29.903 5.618 29.614 4.946 28.031 4.466C26.448 3.986 27.024 4.082 25.871 4.131C24.721 4.181 23.761 4.803 23.761 5.141C23.761 5.141 23.041 5.188 22.753 5.476C22.483 5.748 22.043 6.948 21.995 7.366H22.028L22.108 8.28C22.128 8.51 22.13 8.715 22.135 8.924C22.225 9.59 22.345 10.274 22.465 10.514L22.179 10.609C21.939 13.391 23.139 13.727 23.139 13.727C23.571 16.317 24.002 15.215 24.002 15.887C24.002 16.559 23.572 16.317 23.572 16.317C23.572 16.317 23.518 16.46 23.408 16.657C28.178 18.557 29.335 19.137 29.688 19.49C30.358 20.158 30.462 21.806 30.433 23.085H30.913V17.78L30.863 17.758C29.903 17.375 29.519 16.318 29.519 16.318C29.519 16.318 29.086 16.558 29.086 15.888C29.086 15.218 29.519 16.318 29.95 13.728C29.95 13.728 30.754 13.498 30.913 11.888V10.66C30.913 10.642 30.913 10.627 30.91 10.61H30.62C30.62 10.61 30.836 9.72 30.913 8.748V7.572Z" fill="#F8F8F8"/>
</svg>
